<svg width="28" height="27" viewBox="0 0 28 27" fill="none" xmlns="http://www.w3.org/2000/svg">
<g clip-path="url(#clip0_10_52)">
<path d="M27.1783 13.7526C27.1783 12.6464 27.0885 11.8392 26.8943 11.0021H14.2628V15.9948H21.6772C21.5278 17.2356 20.7206 19.1041 18.9267 20.3597L18.9016 20.5269L22.8954 23.6209L23.1721 23.6485C25.7133 21.3015 27.1783 17.8484 27.1783 13.7526Z" fill="#4285F4"/>
<path d="M14.2627 26.9072C17.8952 26.9072 20.9446 25.7113 23.172 23.6485L18.9266 20.3597C17.7906 21.152 16.2658 21.7051 14.2627 21.7051C10.705 21.7051 7.68546 19.3583 6.60907 16.1144L6.4513 16.1278L2.29845 19.3418L2.24414 19.4927C4.45649 23.8876 9.00084 26.9072 14.2627 26.9072Z" fill="#34A853"/>
<path d="M6.60915 16.1145C6.32514 15.2774 6.16077 14.3804 6.16077 13.4536C6.16077 12.5268 6.32514 11.6299 6.59421 10.7928L6.58669 10.6145L2.3818 7.34894L2.24422 7.41438C1.33241 9.23811 0.809204 11.2861 0.809204 13.4536C0.809204 15.6211 1.33241 17.669 2.24422 19.4928L6.60915 16.1145Z" fill="#FBBC05"/>
<path d="M14.2627 5.20203C16.789 5.20203 18.4931 6.29327 19.4648 7.20519L23.2617 3.49794C20.9298 1.33042 17.8952 0 14.2627 0C9.00084 0 4.45649 3.01957 2.24414 7.41438L6.59413 10.7928C7.68547 7.54897 10.705 5.20203 14.2627 5.20203Z" fill="#EB4335"/>
</g>
<defs>
<clipPath id="clip0_10_52">
<rect width="27" height="27" fill="white" transform="translate(0.5)"/>
</clipPath>
</defs>
</svg>
