<svg width="128" height="128" viewBox="0 0 128 128" fill="none" xmlns="http://www.w3.org/2000/svg">
<rect width="128" height="128" rx="15" fill="black" fill-opacity="0.05"/>
<path d="M33.1406 31.5312C35.9531 32.0312 38.2656 32.375 40.0781 32.5625C41.8906 32.75 43.3594 32.9062 44.4844 33.0312C45.7969 33.1562 46.8281 33.1875 47.5781 33.125H50.3906C51.3906 33.125 52.6406 33.125 54.1406 33.125C55.7031 33.0625 57.6406 33.0312 59.9531 33.0312C61.2656 36.0938 62.4531 38.9062 63.5156 41.4688C64.6406 44.0312 65.5781 46.2188 66.3281 48.0312C67.2031 50.2188 68.0156 52.1875 68.7656 53.9375C69.6406 56.125 70.5781 58.5312 71.5781 61.1562C72.5781 63.7812 73.4844 66.25 74.2969 68.5625C75.1719 70.875 75.8906 72.7812 76.4531 74.2812C77.0156 75.7812 77.2969 76.4688 77.2969 76.3438C77.2969 76.2812 77.3281 75.6562 77.3906 74.4688C77.4531 73.2188 77.5156 71.6875 77.5781 69.875C77.6406 68 77.7031 65.9688 77.7656 63.7812C77.8906 61.5312 77.9531 59.375 77.9531 57.3125C78.0156 55.1875 78.0469 53.25 78.0469 51.5C78.0469 49.75 77.9844 48.4375 77.8594 47.5625C77.6719 46.5 77.2969 45.2812 76.7344 43.9062C76.2344 42.7188 75.5469 41.3125 74.6719 39.6875C73.7969 38 72.5781 36.0938 71.0156 33.9688C73.5781 34.0312 75.6719 34.0625 77.2969 34.0625C78.9219 34.0625 80.2344 34.0625 81.2344 34.0625C82.3594 34.0625 83.2344 34.0312 83.8594 33.9688C84.6719 33.9688 85.6719 33.9062 86.8594 33.7812C87.9219 33.6562 89.2344 33.5625 90.7969 33.5C92.4219 33.375 94.4219 33.2188 96.7969 33.0312C95.4219 34.2812 94.3281 35.4688 93.5156 36.5938C92.7031 37.7188 92.0469 38.7188 91.5469 39.5938C90.9844 40.5938 90.6094 41.5312 90.4219 42.4062C90.1719 43.5312 89.9531 45.375 89.7656 47.9375C89.6406 50.4375 89.4844 53.25 89.2969 56.375C89.1719 59.5 89.0469 62.75 88.9219 66.125C88.7969 69.5 88.6719 72.5938 88.5469 75.4062C88.5469 77.5312 88.4844 79.8125 88.3594 82.25C88.2344 84.3125 88.1094 86.6562 87.9844 89.2812C87.8594 91.8438 87.7031 94.4375 87.5156 97.0625L79.1719 97.25C76.7344 92.9375 74.6719 89.25 72.9844 86.1875C71.3594 83.0625 70.0156 80.5 68.9531 78.5C67.7656 76.1875 66.7656 74.25 65.9531 72.6875C65.2656 71.1875 64.3594 69.4688 63.2344 67.5312C62.2969 65.9062 61.1094 63.9062 59.6719 61.5312C58.2969 59.1562 56.6406 56.4375 54.7031 53.375C54.5156 57.6875 54.4219 61.375 54.4219 64.4375C54.4844 67.4375 54.5781 69.9375 54.7031 71.9375C54.8906 74.25 55.1094 76.1875 55.3594 77.75C55.6719 79.25 56.1094 80.9375 56.6719 82.8125C57.1719 84.4375 57.7656 86.3438 58.4531 88.5312C59.2031 90.7188 60.1094 93.1875 61.1719 95.9375C57.4844 95.75 54.7344 95.6562 52.9219 95.6562H50.1094C49.2344 95.6562 48.0469 95.75 46.5469 95.9375C45.2969 96.0625 43.5781 96.25 41.3906 96.5C39.2656 96.75 36.6094 97.0938 33.4219 97.5312C34.9219 95.7188 36.1094 94.0625 36.9844 92.5625C37.9219 91 38.6406 89.6875 39.1406 88.625C39.7656 87.375 40.2031 86.2812 40.4531 85.3438C40.6406 84.3438 40.7656 82.625 40.8281 80.1875C40.8906 77.6875 40.8906 74.875 40.8281 71.75C40.8281 68.5625 40.7656 65.2188 40.6406 61.7188C40.5781 58.2188 40.4844 54.9688 40.3594 51.9688C40.2344 48.9688 40.0781 46.4062 39.8906 44.2812C39.7656 42.1562 39.6719 40.8438 39.6094 40.3438C39.4219 39.5312 39.0469 38.6562 38.4844 37.7188C37.9844 36.9062 37.3281 36 36.5156 35C35.7031 33.9375 34.5781 32.7812 33.1406 31.5312Z" fill="#171717"/>
</svg>
